<svg width="25" height="24" viewBox="0 0 25 24" fill="none" xmlns="http://www.w3.org/2000/svg">
<path d="M12.5 19.5C16.6421 19.5 20 16.1421 20 12C20 7.85786 16.6421 4.5 12.5 4.5C8.35786 4.5 5 7.85786 5 12C5 16.1421 8.35786 19.5 12.5 19.5Z" stroke-width="1.5" stroke-linecap="round" stroke-linejoin="round"/>
<path d="M12.5 15C14.1569 15 15.5 13.6569 15.5 12C15.5 10.3431 14.1569 9 12.5 9C10.8431 9 9.5 10.3431 9.5 12C9.5 13.6569 10.8431 15 12.5 15Z" stroke-width="1.5" stroke-linecap="round" stroke-linejoin="round"/>
<path d="M12.5 4V2" stroke-width="1.5" stroke-linecap="round" stroke-linejoin="round"/>
<path d="M4.5 12H2.5" stroke-width="1.5" stroke-linecap="round" stroke-linejoin="round"/>
<path d="M12.5 20V22" stroke-width="1.5" stroke-linecap="round" stroke-linejoin="round"/>
<path d="M20.5 12H22.5" stroke-width="1.5" stroke-linecap="round" stroke-linejoin="round"/>
</svg>
