<svg width="66" height="76" viewBox="0 0 66 76" fill="none" xmlns="http://www.w3.org/2000/svg">
<path d="M21.3757 34.8566C23.4204 35.36 25.4023 35.6116 27.3212 35.6116C28.4223 35.6116 29.3975 35.5172 30.2468 35.3285C32.7005 34.7937 34.8397 33.268 36.6642 30.7514C37.1361 30.1222 37.608 29.8076 38.0799 29.8076C38.7405 29.8076 39.0708 30.2008 39.0708 30.9873C39.0708 31.3333 38.9449 31.6794 38.6933 32.0254C36.68 34.8881 35.2329 36.7756 34.3521 37.6878C32.1186 40.0472 29.948 41.2269 27.8403 41.2269C25.1034 41.2269 21.7846 40.2045 17.8838 38.1597C14.9268 40.3618 11.9068 41.4628 8.82396 41.4628C5.99274 41.4628 3.75923 40.8651 2.12341 39.6697C0.707804 38.6316 0 37.389 0 35.9419C0 34.5263 0.487598 33.3624 1.46279 32.4501C2.56382 31.412 4.13672 30.8929 6.18149 30.8929C8.16334 30.8929 10.7901 31.4277 14.0617 32.4973C15.8234 30.3267 17.412 27.6528 18.8276 24.4755C13.5741 23.1228 10.9474 20.15 10.9474 15.5572C10.9474 12.1283 12.363 9.23412 15.1942 6.87477C17.585 4.86146 19.9915 3.85481 22.4138 3.85481C24.3642 3.85481 25.8899 4.15366 26.9909 4.75136C27.4313 5.00302 27.6515 5.30188 27.6515 5.64791C27.6515 6.4029 27.2111 6.7804 26.3303 6.7804C26.1101 6.7804 25.9056 6.73321 25.7169 6.63884C24.8361 6.38717 23.7822 6.26134 22.5554 6.26134C20.5106 6.26134 18.5602 7.01633 16.7042 8.52631C14.6594 10.225 13.5584 12.2698 13.4011 14.6606C13.2753 16.8627 13.6842 18.5457 14.6279 19.7096C15.6661 20.9679 17.4277 21.7858 19.9129 22.1633C20.2275 21.4713 20.605 20.6691 21.0454 19.7568C22.9643 15.9189 25.2293 12.6316 27.8403 9.89474C31.4265 6.11978 35.0442 4.23231 38.6933 4.23231C40.8953 4.23231 42.2952 4.95584 42.8929 6.4029C43.3019 7.3781 43.3491 8.52632 43.0345 9.84755C42.2795 13.0248 40.2662 16.0448 36.9946 18.9074C34.0375 21.4555 30.8603 23.2644 27.4628 24.3339C25.8899 28.5178 23.8609 32.0254 21.3757 34.8566ZM38.3158 6.30853C37.6552 6.30853 37.1047 6.43436 36.6642 6.68602C35.5632 7.28373 34.6195 8.13309 33.833 9.23412C32.1972 11.5935 30.3884 15.683 28.4065 21.5027C30.5771 20.5904 33.0309 18.7973 35.7677 16.1234C38.8191 13.1034 40.3448 10.5868 40.3448 8.5735C40.3448 7.9758 40.1561 7.45675 39.7786 7.01634C39.4325 6.54447 38.9449 6.30853 38.3158 6.30853ZM11.8911 34.951C9.43739 33.7241 7.39262 33.1107 5.75681 33.1107C3.93224 33.1107 3.01996 33.8342 3.01996 35.2813C3.01996 36.0992 3.35027 36.7756 4.01089 37.3103C4.70296 37.8137 5.47368 38.0653 6.32305 38.0653C7.95886 38.0653 9.81488 37.0272 11.8911 34.951Z" fill="#324252"/>
<path d="M42.1397 46.1924C41.4162 44.8397 41.0544 43.7701 41.0544 42.9837C41.0544 42.1658 41.369 41.7568 41.9982 41.7568C42.6588 41.7568 43.1621 42.2601 43.5082 43.2668L43.6025 43.5499C46.8742 37.4156 50.4761 32.7284 54.4083 29.4882C52.4894 27.9153 49.9885 27.1289 46.9056 27.1289C43.0992 27.1289 39.859 28.4186 37.1851 30.9982C34.5112 33.5777 33.1742 36.7393 33.1742 40.4828C33.1742 43.1881 33.7877 45.17 35.0145 46.4283C35.8953 47.0889 36.7762 47.7338 37.657 48.363C37.8772 48.6146 37.9873 48.9292 37.9873 49.3067C37.9873 50.3134 37.5154 50.8167 36.5717 50.8167C36.1313 50.8167 35.6751 50.6437 35.2033 50.2976C32.2462 48.2214 30.7677 45.17 30.7677 41.1434C30.7677 36.7393 32.3878 32.9486 35.6279 29.7713C39.0569 26.4053 43.461 24.7223 48.8403 24.7223C52.2063 24.7223 55.1162 25.5245 57.5699 27.1289C58.8282 26.3424 60.1966 25.5402 61.6751 24.7223C62.1785 24.4392 62.6346 24.2976 63.0436 24.2976C63.6727 24.2976 63.9873 24.565 63.9873 25.0998C63.9873 25.6975 63.5626 26.2008 62.7132 26.6098C61.5178 27.176 60.4483 27.8052 59.5045 28.4973C61.3291 30.0702 62.7447 31.9891 63.7514 34.2541C64.6636 36.3303 65.1198 38.3593 65.1198 40.3412C65.1198 43.4555 63.9558 46.1766 61.628 48.5045C59.3315 50.801 56.6733 51.9492 53.6534 51.9492C51.7344 51.9492 49.8784 51.6031 48.0853 50.9111C46.3866 55.4725 43.8699 58.9486 40.5354 61.3394C37.7042 63.3842 34.6999 64.4065 31.5227 64.4065C28.4713 64.4065 25.9232 63.5886 23.8784 61.9528C21.8336 60.317 20.8113 58.2093 20.8113 55.6298C20.8113 53.3019 21.5191 51.493 22.9347 50.2033C24.0672 49.2281 25.3255 48.7405 26.7096 48.7405C27.7477 48.7405 28.6128 49.1022 29.3049 49.8258C30.0284 50.5178 30.3902 51.3043 30.3902 52.1851C30.3902 53.1918 29.8869 54.0254 28.8802 54.686C27.905 55.3466 27.3702 55.7241 27.2759 55.8185C26.6152 56.4477 26.2849 57.1869 26.2849 58.0363C26.2849 59.4834 27.2759 60.2069 29.2577 60.2069C32.6237 60.5529 36.9177 55.8814 42.1397 46.1924ZM49.2178 47.7024C49.4065 47.7024 49.7054 47.7338 50.1143 47.7967C50.5547 47.8596 50.8851 47.8911 51.1053 47.8911C53.1186 47.8911 54.833 46.8215 56.2486 44.6824C57.6013 42.6376 58.2777 40.2626 58.2777 37.5572C58.2777 35.3551 57.6957 33.389 56.5318 31.6588C54.1724 34.8046 51.7344 40.1524 49.2178 47.7024Z" fill="#324252"/>
</svg>
