<svg width="105" height="105" viewBox="0 0 105 105" fill="white" color="#FFFFFF" xmlns="http://www.w3.org/2000/svg">
<path fill-rule="evenodd" clip-rule="evenodd" d="M46.34 23.339C47.5092 23.6837 48.0799 24.2969 47.7702 24.8758C47.5676 25.2545 47.3915 25.3048 46.6312 25.2011C42.357 24.6188 40.6277 24.8564 38.3517 26.3388C35.1992 28.3919 33.8511 30.7804 33.8719 34.2766C33.8822 36.0167 33.9587 36.4007 34.5158 37.5073C34.8635 38.1981 35.4968 39.0389 35.9234 39.3763C36.6842 39.9779 39.4451 41.0499 40.2337 41.0499C40.5242 41.0499 40.9366 40.4511 41.7382 38.8651C44.031 34.3278 46.6684 30.6722 49.6753 27.8642C52.9509 24.805 56.0352 23.3463 59.2402 23.3405C65.0856 23.3299 64.7502 29.8447 58.584 36.0813C55.7779 38.9195 52.2872 41.2139 49.08 42.328C47.8963 42.739 47.8894 42.7466 47.201 44.4029C46.2845 46.6069 44.5434 49.6469 43.0879 51.5834C42.4393 52.4467 41.9591 53.2846 42.0209 53.4457C42.2058 53.9276 44.9017 54.3341 47.892 54.3307C51.5253 54.3266 51.7761 54.2192 52.9427 52.1685C54.7556 48.9823 57.0193 46.7696 60.1146 45.158C65.05 42.5885 72.1088 42.5412 76.5688 45.0478L77.5976 45.6261L79.4848 44.4688C82.0379 42.9032 82.412 42.7276 83.0138 42.8127C83.7296 42.9138 83.8189 43.7097 83.1665 44.1728C82.8922 44.3674 82.0362 44.9098 81.264 45.3783C80.4918 45.8468 79.7202 46.3179 79.5496 46.4253C79.3012 46.5814 79.4472 46.8517 80.2797 47.7772C84.634 52.6176 85.9136 58.6278 83.5836 63.2951C82.7643 64.9356 80.2913 67.5501 78.8746 68.2726C76.1184 69.6788 72.9296 69.9781 69.8374 69.1213C68.963 68.8789 68.1599 68.71 68.053 68.7456C67.9461 68.7813 67.5316 69.5623 67.1322 70.4814C66.0703 72.9239 64.6169 75.1367 62.9599 76.8335C59.526 80.35 55.9801 81.9279 51.456 81.953C49.4969 81.9635 48.9474 81.8813 47.4213 81.3475C45.4529 80.6593 43.939 79.6264 42.8979 78.2611C39.5598 73.8847 41.8485 67.1617 46.6865 67.1328C49.1213 67.1183 50.8117 68.991 50.1563 70.9769C49.9885 71.4856 49.479 72.0258 48.4417 72.7948C46.8632 73.9651 46.272 74.8654 46.272 76.0994C46.272 78.3587 49.626 79.1571 52.4144 77.5617C53.856 76.737 56.2264 74.2327 58.033 71.6262C59.8066 69.067 61.9836 65.4337 62.1569 64.7436C62.2398 64.4129 62.1057 63.6392 61.8171 62.7851C61.2408 61.0789 61.3514 60.2739 62.1623 60.2739C62.5426 60.2739 62.8198 60.47 63.0762 60.9206C63.2783 61.2761 63.5587 61.5677 63.6987 61.5686C63.8386 61.5693 64.4102 60.8165 64.9687 59.8959C67.5975 55.5621 70.0847 52.2424 72.5337 49.7988C73.5338 48.8008 74.352 47.8351 74.352 47.6524C74.352 47.2098 73.0033 46.3389 71.4217 45.7602C69.6168 45.0997 65.6275 44.9593 63.4742 45.4803C61.2177 46.0261 58.846 47.285 58.3589 48.195C58.171 48.546 58.2235 48.6479 58.6834 48.8227C59.0605 48.9661 59.232 49.1933 59.232 49.5495C59.232 50.2137 56.4154 54.2011 54.5472 56.1816L53.1255 57.6884L53.2298 59.6836C53.3778 62.5102 54.0204 63.7692 56.2618 65.6236C57.95 67.0202 58.2775 67.622 57.6768 68.2227C57.1133 68.7863 56.0687 68.5171 54.8757 67.5011C52.7872 65.7225 51.6988 63.6355 51.3314 60.7059C51.1465 59.2302 50.9231 58.9012 50.3237 59.2218C50.0539 59.3663 49.0439 59.4207 47.7004 59.363C45.3337 59.2615 43.5988 58.7777 40.338 57.3095L38.6161 56.5343L37.5301 57.1361C34.7406 58.6816 33.5086 59.2079 31.908 59.5389C26.4877 60.659 21 58.1783 21 54.6078C21 52.0348 22.5606 50.4018 25.4667 49.9338C26.7419 49.7284 29.165 49.9044 30.72 50.3152C31.1358 50.425 32.1694 50.704 33.0167 50.9351C33.952 51.19 34.6855 51.2838 34.883 51.1732C35.5709 50.7883 39.576 44.0698 39.576 43.3006C39.576 43.1658 38.6984 42.6917 37.6257 42.247C35.1564 41.2236 33.6103 39.8729 32.631 37.8836C32.0076 36.6174 31.9391 36.2843 31.9339 34.4986C31.9212 29.9374 34.209 26.4079 38.6859 24.0829C39.3248 23.7511 40.3454 23.3526 40.9539 23.1973C42.1915 22.8815 45.0425 22.9564 46.34 23.339ZM56.856 25.5202C55.2779 26.4652 54.0389 27.9357 52.8712 30.2499C52.5414 30.9033 52.1755 31.6226 52.0578 31.8483C51.2966 33.3087 48.864 39.4763 48.864 39.9457C48.864 40.3892 49.636 40.1915 50.9164 39.4206C53.9225 37.6103 58.1773 33.5646 59.6748 31.0925C61.1447 28.666 61.2885 26.2712 60.0182 25.3813C59.3532 24.9156 57.7481 24.986 56.856 25.5202ZM76.2532 49.921C74.9207 50.6831 68.7706 64.5429 69.2317 65.7445C69.4354 66.2753 72.0525 66.2452 73.3081 65.6979C75.4812 64.7505 77.4144 61.9818 78.1447 58.7708C78.8172 55.8146 78.2815 51.8145 76.9956 50.1865C76.7101 49.8253 76.5319 49.7616 76.2532 49.921ZM24.334 52.1316C23.7704 52.6165 23.7013 52.8107 23.7112 53.8781C23.7205 54.8452 23.8257 55.189 24.2512 55.6435C25.8552 57.3551 28.6231 57.1568 31.1449 55.1497C33.0833 53.6073 33.047 53.4127 30.6459 52.47C29.2622 51.9268 28.4639 51.7579 26.926 51.6821C25.0744 51.5911 24.9334 51.6155 24.334 52.1316Z" fill="#2D3E50"/>
<path d="M57.8426 0.272545C69.9044 1.5064 81.1673 6.87713 89.7186 15.4727C98.27 24.0682 103.583 35.3587 104.754 47.4266L99.7798 47.9096C98.7196 36.9905 93.9128 26.7749 86.1755 18.9976C78.4382 11.2204 68.2475 6.36091 57.334 5.24451L57.8426 0.272545Z" fill="#48A3DB"/>
<path d="M47.1574 104.727C35.0956 103.494 23.8327 98.1229 15.2814 89.5273C6.73 80.9318 1.41739 69.6413 0.245702 57.5734L5.22024 57.0904C6.28037 68.0095 11.0872 78.2251 18.8245 86.0024C26.5618 93.7796 36.7525 98.6391 47.666 99.7555L47.1574 104.727Z" fill="#567CBE"/>
<path d="M104.727 57.8426C103.494 69.9044 98.1229 81.1673 89.5273 89.7186C80.9318 98.27 69.6413 103.583 57.5734 104.754L57.0904 99.7798C68.0095 98.7196 78.2251 93.9128 86.0024 86.1755C93.7796 78.4382 98.6391 68.2475 99.7555 57.334L104.727 57.8426Z" fill="#324252"/>
<path d="M0.27255 47.1574C1.50641 35.0956 6.87714 23.8327 15.4727 15.2814C24.0682 6.73 35.3587 1.41738 47.4266 0.2457L47.9096 5.22023C36.9905 6.28037 26.7749 11.0872 18.9976 18.8245C11.2204 26.5618 6.36091 36.7525 5.24452 47.666L0.27255 47.1574Z" fill="#E7BF08"/>
</svg>
