<svg width="105" height="105" viewBox="0 0 105 105" fill="none" xmlns="http://www.w3.org/2000/svg">
<path d="M57.8426 0.272545C69.9044 1.5064 81.1673 6.87713 89.7186 15.4727C98.27 24.0682 103.583 35.3587 104.754 47.4266L99.7798 47.9096C98.7196 36.9905 93.9128 26.7749 86.1755 18.9976C78.4382 11.2204 68.2475 6.36091 57.334 5.24451L57.8426 0.272545Z" fill="#48A3DB"/>
<path d="M47.1574 104.727C35.0956 103.494 23.8327 98.1229 15.2814 89.5273C6.73 80.9318 1.41739 69.6413 0.245702 57.5734L5.22024 57.0904C6.28037 68.0095 11.0872 78.2251 18.8245 86.0024C26.5618 93.7796 36.7525 98.6391 47.666 99.7555L47.1574 104.727Z" fill="#567CBE"/>
<path d="M104.727 57.8426C103.494 69.9044 98.1229 81.1673 89.5273 89.7186C80.9318 98.27 69.6413 103.583 57.5734 104.754L57.0904 99.7798C68.0095 98.7196 78.2251 93.9128 86.0024 86.1755C93.7796 78.4382 98.6391 68.2475 99.7555 57.334L104.727 57.8426Z" fill="#324252"/>
<path d="M0.27255 47.1574C1.50641 35.0956 6.87714 23.8327 15.4727 15.2814C24.0682 6.73 35.3587 1.41738 47.4266 0.2457L47.9096 5.22023C36.9905 6.28037 26.7749 11.0872 18.9976 18.8245C11.2204 26.5618 6.36091 36.7525 5.24452 47.666L0.27255 47.1574Z" fill="#E7BF08"/>
</svg>
